# xmcd
# 
# Track frame offsets:
#     182
#     29462
#     68487
#     92680
#     119522
#     146805
#     209707
# 
# Disc length: 2976
# 
# Revision: 1
# Processed by: cddbd v1.5.2PL0 Copyright (c) Steve Scherf et al.
# Submitted via: BonkEnc v1.0.8
# 
DISCID=680b9e07
DTITLE=Daniel Humair, Jerry Bergonzi, Aydin Esen, Miloslav Vitous - Edges
DYEAR=1991
DGENRE=Contemporary Jazz
TTITLE0=Blank for now
TTITLE1=Merano
TTITLE2=Sensitive details
TTITLE3=Monitor
TTITLE4=Mozambique
TTITLE5=Genevamalgame
TTITLE6=Bunaura
EXTD=YEAR: 1991
EXTT0=
EXTT1=
EXTT2=
EXTT3=
EXTT4=
EXTT5=
EXTT6=
PLAYORDER=
